# xmcd
#
# Track frame offsets:
#	150
#	18201
#	30734
#	38727
#	44422
#	58102
#
# Disc length: 873 seconds
#
# Revision: 0
# Processed by: cddbd v1.5.2PL0 Copyright (c) Steve Scherf et al.
# Submitted via: EasyCDDAExtractor 11.5.3.1
#
DISCID=45036706
DTITLE=Willie Nelson - Best Of Willie Nelson
DYEAR=2006
DGENRE=Country
TTITLE0=Crazy
TTITLE1=Half A Man
TTITLE2=Things To Remember
TTITLE3=Three Days
TTITLE4=A Moment Isn't Very Long
TTITLE5=I Gotta Get Drunk
EXTD=
EXTT0=
EXTT1=
EXTT2=
EXTT3=
EXTT4=
EXTT5=
PLAYORDER=
